# xmcd
#
# Track frame offsets:
#	150
#	15425
#	29937
#	43578
#	58503
#	70902
#	85661
#	101524
#	117842
#	130402
#	143843
#
# Disc length: 2107 seconds
# Revision: 0
# Processed by: cddbd v1.5.2PL0 Copyright (c) Steve Scherf et al.
# Submitted via: dBpowerAMP V12.0
#
DISCID=9408390b
DTITLE=Cold Creek County - Till The Wheels Fall Off
DYEAR=2015
DGENRE=Canadian
TTITLE0=Ain't Had Enough Of That Yet
TTITLE1=Till The Wheels Come Off
TTITLE2=Beer Weather
TTITLE3=Drink You Up
TTITLE4=Trucker Hat
TTITLE5=Our Town
TTITLE6=Still That Way
TTITLE7=Blow My Speakers
TTITLE8=Good Thing We're In The Country
TTITLE9=I Can Change All That
TTITLE10=Ain't Nothing But A Party
EXTD=
EXTT0=
EXTT1=
EXTT2=
EXTT3=
EXTT4=
EXTT5=
EXTT6=
EXTT7=
EXTT8=
EXTT9=
EXTT10=
PLAYORDER=
